<svg width="80" height="80" viewBox="0 0 30 30" fill="none" xmlns="http://www.w3.org/2000/svg">
<path d="M6.75 23V27.7075L8.64375 26.5713L14.5963 23H20.5C21.8787 23 23 21.8787 23 20.5V10.5C23 9.12125 21.8787 8 20.5 8H5.5C4.12125 8 3 9.12125 3 10.5V20.5C3 21.8787 4.12125 23 5.5 23H6.75ZM5.5 10.5H20.5V20.5H13.9037L9.25 23.2925V20.5H5.5V10.5Z" fill="black"/>
<path d="M25.5 3H10.5C9.12125 3 8 4.12125 8 5.5H23C24.3787 5.5 25.5 6.62125 25.5 8V18C26.8787 18 28 16.8787 28 15.5V5.5C28 4.12125 26.8787 3 25.5 3Z" fill="black"/>
</svg>
