<svg width="80" height="80" viewBox="0 0 24 25" fill="none" xmlns="http://www.w3.org/2000/svg">
<path d="M0.208076 13.7084H1.41641V22.1667C1.41641 23.4995 2.50028 24.5834 3.83308 24.5834H18.3331C19.6659 24.5834 20.7497 23.4995 20.7497 22.1667V13.7084H21.9581C22.197 13.7083 22.4306 13.6374 22.6293 13.5046C22.8279 13.3719 22.9828 13.1832 23.0742 12.9624C23.1656 12.7416 23.1896 12.4987 23.1429 12.2644C23.0963 12.03 22.9813 11.8147 22.8124 11.6457L11.9374 0.770728C11.8252 0.658418 11.6921 0.569318 11.5455 0.508526C11.3989 0.447734 11.2418 0.416443 11.0831 0.416443C10.9244 0.416443 10.7672 0.447734 10.6207 0.508526C10.4741 0.569318 10.3409 0.658418 10.2288 0.770728L-0.646216 11.6457C-0.815152 11.8147 -0.930193 12.03 -0.976796 12.2644C-1.0234 12.4987 -0.99947 12.7416 -0.908035 12.9624C-0.8166 13.1832 -0.661765 13.3719 -0.463103 13.5046C-0.264441 13.6374 -0.0308723 13.7083 0.208076 13.7084ZM8.66641 22.1667V16.125H13.4997V22.1667H8.66641ZM11.0831 3.3336L18.3331 10.5836V16.125L18.3343 22.1667H15.9164V16.125C15.9164 14.7922 14.8325 13.7084 13.4997 13.7084H8.66641C7.33362 13.7084 6.24974 14.7922 6.24974 16.125V22.1667H3.83308V10.5836L11.0831 3.3336Z" fill="black"/>
</svg>
