<svg width="80" height="80" viewBox="0 0 26 24" fill="none" xmlns="http://www.w3.org/2000/svg">
<path d="M23.5625 0.625H2.4375C1.09129 0.625 0 1.71629 0 3.0625V20.9375C0 22.2837 1.09129 23.375 2.4375 23.375H23.5625C24.9087 23.375 26 22.2837 26 20.9375V3.0625C26 1.71629 24.9087 0.625 23.5625 0.625ZM23.2578 20.9375H2.74219C2.66138 20.9375 2.58388 20.9054 2.52674 20.8483C2.4696 20.7911 2.4375 20.7136 2.4375 20.6328V3.36719C2.4375 3.28638 2.4696 3.20888 2.52674 3.15174C2.58388 3.0946 2.66138 3.0625 2.74219 3.0625H23.2578C23.3386 3.0625 23.4161 3.0946 23.4733 3.15174C23.5304 3.20888 23.5625 3.28638 23.5625 3.36719V20.6328C23.5625 20.7136 23.5304 20.7911 23.4733 20.8483C23.4161 20.9054 23.3386 20.9375 23.2578 20.9375ZM21.125 16.2656V17.4844C21.125 17.8209 20.8522 18.0938 20.5156 18.0938H10.3594C10.0228 18.0938 9.75 17.8209 9.75 17.4844V16.2656C9.75 15.9291 10.0228 15.6562 10.3594 15.6562H20.5156C20.8522 15.6562 21.125 15.9291 21.125 16.2656ZM21.125 11.3906V12.6094C21.125 12.9459 20.8522 13.2188 20.5156 13.2188H10.3594C10.0228 13.2188 9.75 12.9459 9.75 12.6094V11.3906C9.75 11.0541 10.0228 10.7812 10.3594 10.7812H20.5156C20.8522 10.7812 21.125 11.0541 21.125 11.3906ZM21.125 6.51562V7.73438C21.125 8.0709 20.8522 8.34375 20.5156 8.34375H10.3594C10.0228 8.34375 9.75 8.0709 9.75 7.73438V6.51562C9.75 6.1791 10.0228 5.90625 10.3594 5.90625H20.5156C20.8522 5.90625 21.125 6.1791 21.125 6.51562ZM8.32812 7.125C8.32812 8.13463 7.50963 8.95312 6.5 8.95312C5.49037 8.95312 4.67188 8.13463 4.67188 7.125C4.67188 6.11537 5.49037 5.29688 6.5 5.29688C7.50963 5.29688 8.32812 6.11537 8.32812 7.125ZM8.32812 12C8.32812 13.0096 7.50963 13.8281 6.5 13.8281C5.49037 13.8281 4.67188 13.0096 4.67188 12C4.67188 10.9904 5.49037 10.1719 6.5 10.1719C7.50963 10.1719 8.32812 10.9904 8.32812 12ZM8.32812 16.875C8.32812 17.8846 7.50963 18.7031 6.5 18.7031C5.49037 18.7031 4.67188 17.8846 4.67188 16.875C4.67188 15.8654 5.49037 15.0469 6.5 15.0469C7.50963 15.0469 8.32812 15.8654 8.32812 16.875Z" fill="black"/>
</svg>
