<svg width="80" height="80" viewBox="0 0 80 80" fill="none" xmlns="http://www.w3.org/2000/svg">
<path fill-rule="evenodd" clip-rule="evenodd" d="M71.9995 64.3421C70.6234 64.3421 69.3433 64.7121 68.2125 65.3181L50.8301 47.778C51.9341 46.2229 52.7182 44.4373 53.0809 42.4908H59.1239C59.6757 44.0552 60.6984 45.408 62.05 46.3613C63.4015 47.3145 65.0148 47.8209 66.6658 47.8102C71.0874 47.8102 74.6663 44.314 74.6663 39.992C74.6663 35.6699 71.0874 32.1737 66.6658 32.1737C64.9798 32.1634 63.3341 32.6924 61.9669 33.6843C60.5996 34.6762 59.5816 36.0796 59.0599 37.6915H53.0915C52.7772 35.8614 52.083 34.1183 51.0541 32.5759L68.6019 14.8696C69.6366 15.3469 70.7781 15.6364 71.9995 15.6364C76.4211 15.6364 80 12.1402 80 7.81822C80 3.49621 76.4211 0 71.9995 0C67.5832 0 64.0096 3.49621 64.0096 7.81822C64.0096 9.21778 64.4096 10.5154 65.071 11.6523L47.7045 29.1816C46.1193 28.0495 44.3056 27.2824 42.3922 26.9348V20.6019C45.6297 19.6045 47.9979 16.6821 47.9979 13.1805C47.9979 8.8585 44.419 5.36229 39.9973 5.36229C35.581 5.36229 32.0075 8.8585 32.0075 13.1805C32.0075 16.6928 34.381 19.6313 37.6505 20.618V26.9294C35.7091 27.2726 33.9169 28.0287 32.3648 29.1172L14.977 11.5772C15.6064 10.4565 15.9957 9.19096 15.9957 7.82358C15.9957 3.50157 12.4168 0.0053619 7.9952 0.0053619C3.57891 0.0053619 0.0053333 3.50157 0.0053333 7.82358C0.0053333 12.1456 3.57891 15.6418 7.9952 15.6418C9.24328 15.6418 10.422 15.3361 11.4728 14.8375L28.9939 32.5169C27.9485 34.0452 27.2338 35.804 26.8978 37.7023H20.9347C20.4128 36.0894 19.394 34.6854 18.0256 33.6934C16.6573 32.7015 15.0105 32.173 13.3236 32.1845C8.90726 32.1845 5.33369 35.6807 5.33369 40.0027C5.33369 44.3247 8.90726 47.8209 13.3236 47.8209C16.8438 47.8209 19.804 45.5902 20.8654 42.5015H26.9085C27.2712 44.4802 28.0872 46.2926 29.2233 47.8638L11.8675 65.377C10.6798 64.718 9.34644 64.3695 7.98987 64.3636C3.57357 64.3636 0 67.8598 0 72.1818C0 76.5038 3.57357 80 7.98987 80C12.4115 80 15.9904 76.5038 15.9904 72.1818C15.9904 70.9699 15.6864 69.8385 15.1903 68.825L32.6582 51.1884C34.1356 52.1751 35.8264 52.8454 37.6452 53.1671V59.382C34.381 60.3687 32.0021 63.3018 32.0021 66.8195C32.0021 71.1415 35.5757 74.6377 39.992 74.6377C44.4136 74.6377 47.9925 71.1415 47.9925 66.8195C47.9925 63.3233 45.6297 60.3955 42.3868 59.3981V53.1617C44.2216 52.8293 45.9231 52.1429 47.4112 51.1402L64.847 68.7338C64.2975 69.7995 64.0086 70.9815 64.0043 72.1818C64.0043 76.5038 67.5778 80 71.9941 80C76.4158 80 79.9947 76.5038 79.9947 72.1818C79.9947 67.8598 76.4211 64.3421 71.9995 64.3421Z" fill="black"/>
</svg>
